
<svg xmlns="http://www.w3.org/2000/svg" viewBox="0 0 100 100">
  <path d="M42.05 24.22A19.88 19.88 0 0 1 50 40.1a19.88 19.88 0 0 1 8-15.88 13.42 13.42 0 1 0-15.9 0z" fill="white" fill-opacity="0.8"/>
  <path d="M26.15 37.4A19.85 19.85 0 0 1 43 43a19.85 19.85 0 0 1-5.6-16.85A13.42 13.42 0 1 0 26.15 37.4z" fill="white" fill-opacity="0.8"/>
  <path d="M24.22 58a19.89 19.89 0 0 1 15.88-8 19.89 19.89 0 0 1-15.88-8 13.42 13.42 0 1 0 0 15.9z" fill="white" fill-opacity="0.8"/>
  <path d="M37.4 73.85A19.85 19.85 0 0 1 43 57a19.85 19.85 0 0 1-16.85 5.6A13.42 13.42 0 1 0 37.4 73.85z" fill="white" fill-opacity="0.8"/>
  <path d="M58 75.78a19.89 19.89 0 0 1-8-15.88 19.89 19.89 0 0 1-8 15.88 13.42 13.42 0 1 0 15.9 0z" fill="white" fill-opacity="0.8"/>
  <path d="M73.85 62.6A19.85 19.85 0 0 1 57 57a19.85 19.85 0 0 1 5.6 16.85A13.42 13.42 0 1 0 73.85 62.6z" fill="white" fill-opacity="0.8"/>
  <path d="M86.58 36.58a13.5 13.5 0 0 0-10.8 5.47A19.89 19.89 0 0 1 59.9 50a19.89 19.89 0 0 1 15.88 8 13.42 13.42 0 1 0 10.8-21.37z" fill="white" fill-opacity="0.8"/>
  <path d="M62.6 26.15A19.85 19.85 0 0 1 57 43a19.85 19.85 0 0 1 16.85-5.6 13.42 13.42 0 0 0 11.5-22.76 13.41 13.41 0 0 0-19 0 13.56 13.56 0 0 0-3.75 11.51z" fill="white" fill-opacity="0.8"/>
</svg>
